<?xml version="1.0" encoding="UTF-8" standalone="no"?><!-- Generator: Gravit.io --><svg xmlns="http://www.w3.org/2000/svg" xmlns:xlink="http://www.w3.org/1999/xlink" style="isolation:isolate" viewBox="0 0 1280 800" width="1280pt" height="800pt"><defs><clipPath id="_clipPath_fJT9NkMttPmiHebTvHTIBl5w96d0PJQP"><rect width="1280" height="800"/></clipPath></defs><g clip-path="url(#_clipPath_fJT9NkMttPmiHebTvHTIBl5w96d0PJQP)"><linearGradient id="_lgradient_0" x1="-0.26988527046821575" y1="0.4793902884177484" x2="1.1859513959793042" y2="0.5011452859683986"><stop offset="2.1739130434782608%" style="stop-color:#980000"/><stop offset="99.1304347826087%" style="stop-color:#9900FF"/></linearGradient><rect width="1280" height="800" style="fill:url(#_lgradient_0);"/><linearGradient id="_lgradient_1" x1="0" y1="0.5" x2="1" y2="0.5" gradientTransform="matrix(82.824,66.26,-66.26,82.824,631.736,713.127)" gradientUnits="userSpaceOnUse"><stop offset="0%" stop-opacity="1" style="stop-color:rgb(0,255,0)"/><stop offset="98.26086956521739%" stop-opacity="1" style="stop-color:rgb(74,134,232)"/></linearGradient><path d=" M 598.606 754.539 C 616.891 731.683 650.292 727.972 673.148 746.256 C 696.004 764.541 699.716 797.942 681.431 820.799 C 663.146 843.655 629.745 847.366 606.889 829.081 C 584.033 810.796 580.321 777.395 598.606 754.539 Z " fill="url(#_lgradient_1)"/><linearGradient id="_lgradient_2" x1="0" y1="0.5" x2="1" y2="0.5" gradientTransform="matrix(-93.741,-49.627,49.627,-93.741,1211.696,590.569)" gradientUnits="userSpaceOnUse"><stop offset="0%" stop-opacity="1" style="stop-color:rgb(0,255,0)"/><stop offset="98.26086956521739%" stop-opacity="1" style="stop-color:rgb(74,134,232)"/></linearGradient><path d=" M 1236.509 543.699 C 1222.814 569.567 1190.694 579.451 1164.825 565.755 C 1138.957 552.06 1129.073 519.94 1142.769 494.071 C 1156.464 468.203 1188.584 458.32 1214.453 472.015 C 1240.321 485.71 1250.204 517.83 1236.509 543.699 Z " fill="url(#_lgradient_2)"/><linearGradient id="_lgradient_3" x1="0" y1="0.5" x2="1" y2="0.5" gradientTransform="matrix(86.31,61.65,-61.65,86.31,-23.178,366.56)" gradientUnits="userSpaceOnUse"><stop offset="0%" stop-opacity="1" style="stop-color:rgb(0,255,0)"/><stop offset="98.26086956521739%" stop-opacity="1" style="stop-color:rgb(74,134,232)"/></linearGradient><path d=" M -54.003 409.715 C -36.99 385.897 -3.841 380.372 19.977 397.385 C 43.795 414.398 49.32 447.547 32.307 471.365 C 15.295 495.183 -17.855 500.708 -41.673 483.695 C -65.491 466.682 -71.016 433.533 -54.003 409.715 Z " fill="url(#_lgradient_3)"/><linearGradient id="_lgradient_4" x1="0" y1="0.5" x2="1" y2="0.5" gradientTransform="matrix(76.485,-73.486,73.486,76.485,483.072,422.166)" gradientUnits="userSpaceOnUse"><stop offset="0%" stop-opacity="1" style="stop-color:rgb(0,255,0)"/><stop offset="98.26086956521739%" stop-opacity="1" style="stop-color:rgb(74,134,232)"/></linearGradient><path d=" M 519.815 460.409 C 499.536 439.302 500.208 405.702 521.315 385.423 C 542.421 365.144 576.021 365.816 596.3 386.923 C 616.579 408.029 615.907 441.629 594.801 461.908 C 573.694 482.188 540.094 481.516 519.815 460.409 Z " fill="url(#_lgradient_4)"/><linearGradient id="_lgradient_5" x1="0" y1="0.5" x2="1" y2="0.5" gradientTransform="matrix(19.935,104.177,-104.177,19.935,914.764,458.034)" gradientUnits="userSpaceOnUse"><stop offset="0%" stop-opacity="1" style="stop-color:rgb(0,255,0)"/><stop offset="98.26086956521739%" stop-opacity="1" style="stop-color:rgb(74,134,232)"/></linearGradient><path d=" M 862.675 468.002 C 891.424 462.501 919.23 481.374 924.731 510.123 C 930.233 538.871 911.359 566.678 882.61 572.179 C 853.862 577.68 826.056 558.806 820.555 530.058 C 815.053 501.31 833.927 473.503 862.675 468.002 Z " fill="url(#_lgradient_5)"/><linearGradient id="_lgradient_6" x1="0" y1="0.5" x2="1" y2="0.5" gradientTransform="matrix(46.576,95.294,-95.294,46.576,179.844,564.865)" gradientUnits="userSpaceOnUse"><stop offset="0%" stop-opacity="1" style="stop-color:rgb(0,255,0)"/><stop offset="98.26086956521739%" stop-opacity="1" style="stop-color:rgb(74,134,232)"/></linearGradient><path d=" M 132.197 588.153 C 158.494 575.3 190.279 586.215 203.132 612.512 C 215.985 638.809 205.07 670.594 178.773 683.447 C 152.476 696.3 120.691 685.385 107.838 659.088 C 94.985 632.791 105.9 601.006 132.197 588.153 Z " fill="url(#_lgradient_6)"/><linearGradient id="_lgradient_7" x1="0" y1="0.5" x2="1" y2="0.5" gradientTransform="matrix(76.128,73.856,-73.856,76.128,91.672,31.678)" gradientUnits="userSpaceOnUse"><stop offset="0%" stop-opacity="1" style="stop-color:rgb(0,255,0)"/><stop offset="98.26086956521739%" stop-opacity="1" style="stop-color:rgb(74,134,232)"/></linearGradient><path d=" M 54.745 69.742 C 75.126 48.734 108.728 48.224 129.737 68.606 C 150.745 88.987 151.254 122.59 130.873 143.598 C 110.492 164.606 76.889 165.115 55.881 144.734 C 34.873 124.353 34.363 90.75 54.745 69.742 Z " fill="url(#_lgradient_7)"/><linearGradient id="_lgradient_8" x1="0" y1="0.5" x2="1" y2="0.5" gradientTransform="matrix(-101.867,29.554,-29.554,-101.867,524.933,180.191)" gradientUnits="userSpaceOnUse"><stop offset="0%" stop-opacity="1" style="stop-color:rgb(0,255,0)"/><stop offset="98.26086956521739%" stop-opacity="1" style="stop-color:rgb(74,134,232)"/></linearGradient><path d=" M 510.156 129.257 C 518.311 157.368 502.11 186.812 473.999 194.968 C 445.888 203.123 416.445 186.922 408.289 158.811 C 400.133 130.7 416.335 101.257 444.445 93.101 C 472.556 84.945 502 101.147 510.156 129.257 Z " fill="url(#_lgradient_8)"/><linearGradient id="_lgradient_9" x1="0" y1="0.5" x2="1" y2="0.5" gradientTransform="matrix(65.057,-83.772,83.772,65.057,921.17,167.856)" gradientUnits="userSpaceOnUse"><stop offset="0%" stop-opacity="1" style="stop-color:rgb(0,255,0)"/><stop offset="98.26086956521739%" stop-opacity="1" style="stop-color:rgb(74,134,232)"/></linearGradient><path d=" M 963.056 200.384 C 939.938 182.431 935.745 149.087 953.698 125.969 C 971.651 102.852 1004.995 98.659 1028.113 116.612 C 1051.231 134.565 1055.424 167.909 1037.47 191.027 C 1019.517 214.144 986.173 218.337 963.056 200.384 Z " fill="url(#_lgradient_9)"/><linearGradient id="_lgradient_10" x1="0" y1="0.5" x2="1" y2="0.5" gradientTransform="matrix(65.057,-83.772,83.772,65.057,1139.33,19.603)" gradientUnits="userSpaceOnUse"><stop offset="0%" stop-opacity="1" style="stop-color:rgb(0,255,0)"/><stop offset="98.26086956521739%" stop-opacity="1" style="stop-color:rgb(74,134,232)"/></linearGradient><path d=" M 1181.217 52.131 C 1158.099 34.178 1153.906 0.834 1171.859 -22.283 C 1189.812 -45.401 1223.156 -49.594 1246.274 -31.641 C 1269.391 -13.688 1273.584 19.656 1255.631 42.774 C 1237.678 65.891 1204.334 70.084 1181.217 52.131 Z " fill="url(#_lgradient_10)"/></g></svg>