<?xml version="1.0" encoding="UTF-8" standalone="no"?><!-- Generator: Gravit.io --><svg xmlns="http://www.w3.org/2000/svg" xmlns:xlink="http://www.w3.org/1999/xlink" style="isolation:isolate" viewBox="0 0 630 640" width="630pt" height="640pt"><defs><clipPath id="_clipPath_UaAmBatTpdpZ8pOmRCtwla6UaskptEjR"><rect width="630" height="640"/></clipPath></defs><g clip-path="url(#_clipPath_UaAmBatTpdpZ8pOmRCtwla6UaskptEjR)"><g><circle vector-effect="non-scaling-stroke" cx="314.73879567933767" cy="319.31423990190996" r="301.26120432066233" fill="rgb(255,255,255)" stroke-width="10" stroke="rgb(238,83,83)" stroke-linejoin="miter" stroke-linecap="square" stroke-miterlimit="3"/><path d="M 321.235 113.219 L 497.93 218.708 C 500.977 220.527 501.974 224.477 500.155 227.524 L 497.194 232.484 C 495.375 235.53 491.425 236.527 488.378 234.708 L 311.683 129.219 C 308.636 127.4 307.639 123.45 309.458 120.403 L 312.42 115.443 C 314.238 112.396 318.189 111.4 321.235 113.219 Z" style="stroke:none;fill:#212F3E;stroke-miterlimit:10;"/><path d=" M 329.025 148.496 C 293.212 170.26 246.017 190.565 187.402 209.369 C 160.898 321.418 168.365 427.028 187.402 488.89 C 371.008 250.143 366.493 239.417 196.098 493.859 C 291.749 490.54 379.981 450.813 460.711 374.597 C 449.835 311.574 452.333 263.552 468.165 230.489 L 329.025 148.496 Z " fill="rgb(33,47,62)"/><circle vector-effect="non-scaling-stroke" cx="324.0561525139972" cy="307.5122545780075" r="19.877027913940594" fill="rgb(238,83,83)"/></g></g></svg>